<svg xml:space="preserve" viewBox="0 0 4500 3500" height="3500px" width="4500px" y="0px" x="0px" xmlns="http://www.w3.org/2000/svg"
     id="svg8" version="1.1">
<defs>
	
	
		
		
</defs>


    <g id="layer2">
	<path d="M2122.968,408.937c-284.527-0.83-635.256,80.284-864.578,353.53c-107.607,128.22-161.5,248.686-184.191,360.029
		c-131.117,110.692-206.932,273.962-207.159,446.12c0.2,106.468,29.361,210.852,84.328,301.846
		c-224.431,86.441-372.642,303.07-372.702,544.752c0.273,162.646,68.041,317.797,186.959,428.037
		c3.737,6.117,6.013,9.479,6.013,9.479l-283.669,248.884h3500c0,0-141.186-38.488-264.459-104.239
		c76.107-67.664,119.762-164.859,119.932-267.018c-0.164-147.277-90.197-279.355-226.738-332.619
		c115.218-112.984,180.203-267.954,180.227-429.787c-0.56-212.835-113.121-409.466-295.861-516.834
		c35.535-73.843,54.107-154.774,54.342-236.809c0-302.237-243.641-547.249-544.186-547.248c-67.518,0-134.445,12.641-197.365,37.269
		c-75.76-93.161-167.044-155.266-253.077-209.759C2492.039,451.028,2324.033,409.522,2122.968,408.937L2122.968,408.937z" fill="#F2F4FF" id="path13786-3"></path>
        <path d="M3641.251,1972.576
		c-153.549,0.375-288.003,32.477-364.91,121.07c-273.444,315.002-223.257,467.733-558.14,491.121
		c-334.883,23.387-557.836-57.277-681.244,229.784c-102.893,239.342-443.323,137.697-615.668,287.061h2566.68
		c0,0-141.186-38.488-264.459-104.239c76.107-67.664,119.762-164.859,119.932-267.018
		c-0.164-147.277-90.197-279.355-226.738-332.619c111.691-109.792,176.154-259.225,179.564-416.252
		C3743.454,1975.716,3691.336,1972.453,3641.251,1972.576L3641.251,1972.576z" fill="#E7EAFF" id="path13788-42"></path>
        <path d="M1075.933,610.58c0,0-79.713,257.826-177.245,386.155
		c-97.533,128.328-39.982,232.908,83.071,232.827c123.052-0.083,373.008-58.584,373.008-58.584l99-26.278
		c0,0,69.938-100.853,9.989-186.842c-59.95-85.988-50.093-235.338-50.093-235.338S1152.042,549.393,1075.933,610.58L1075.933,610.58
		z" fill="#3D3D3D" id="path4297-4"></path>
        <path d="M1429.162,1079.922
		l51.902,64.777c0,0,32.094,84.817,31.545,158.975c-0.553,74.706-0.477,138.18-0.477,138.18l-120.049,2.527l31.652-283.066
		L1429.162,1079.922z" fill="#FF6853" id="path48873-9"></path>
        <path d="M1462.623,1183.02l30.749,254.125l-101.289,7.235
		l41.6-270.404L1462.623,1183.02z" fill="#E0523C" id="path48875-1"></path>
        <path d="M1932.103,1200.98
		c-17.813,0.398-98.817,52.287-98.817,52.287c-1.669-0.858-4.249-37.783-22.713-20.282c-13.617,11.583-23.801,51.87-24.402,53.344
		c-3.762,9.229-8.678,20.264-12.598,28.115c-67.779,33.425-185.617,97.799-278.57,150.445l-1.63-27.744l-121.872-13.954
		l49.748,97.263c18.705,46.013,78.1,55.246,114.605,41.291c107.352-42.438,182.983-120.11,273.732-195.6l73.695-27.828
		c10.819-6.623,36.145-70.388,49.143-94.666c12.591-23.52,15.074-38.461,2.467-42.217c-0.407-0.12-0.828-0.231-1.266-0.329
		C1933.185,1201.007,1932.677,1200.967,1932.103,1200.98L1932.103,1200.98z" fill="#F6CDC1" id="path18154"></path>

        <path d="M1381.344,1480.67l-26.764-29.506l167.087-82.523l3.419,79.047L1381.344,1480.67z" fill="#FFFFFF" id="path48871-0"></path>
        <path d="M1249.667,966.731
		c-34.661-2.174-62.665,1.933-62.665,1.933c-57.685,60.62-165.534,93.031-228.758,151.458
		c-88.253,89.187-63.272,234.141-45.784,323.171l-53.393,310.214h372.313l137.685-255.313c38.795-6.635,62.639-24.415,72.797-48.937
		c16.797-27.207-1.085-106.88,7.336-146.019c14.899-69.249,46.74-104.245,31.867-158.54
		c-48.217-89.846-77.647-79.613-114.34-124.397C1343.026,981.125,1291.498,969.354,1249.667,966.731L1249.667,966.731z" fill="#FF6853" id="path4262-7-6"></path>
        <path d="M1403.748,738.104
		l28.961,59.115C1516.86,781.292,1462.58,591.839,1403.748,738.104z" fill="#F69CB3" id="path4242-0"></path>
        <path d="M1211.751,801.691
		c0,0,0.559,83.441-3.343,119.579c-3.901,36.136-4.442,55.815-4.442,55.815l83.225,86.338l49.065-40.075l-18.833-94.911
		L1211.751,801.691z" fill="#F6C6C0" id="path4248-1-9"></path>
        <path d="M1211.751,801.691
		l105.672,126.748l14.245,71.787c-18.654,2.635-38.743,0.585-52.457-14.382c-32.535-35.51-37.524-120.761-37.524-120.761
		L1211.751,801.691z" fill="#F69CB3" id="path4250-1"></path>
        <path d="M1214.048,814.526
		c-85.61-2.49-61.808-198.123,19.301-62.935c16.314-32.917,52.017-82.076,25.866-141.042c64.842,15.588,118.54,27.381,184.895,3.612
		C1494.494,907.368,1360.497,1098.658,1214.048,814.526L1214.048,814.526z" fill="#F6C6C0" id="path4252-8"></path>
        <path d="M1214.654,774.253
		c0.258-1.538-5.999-23.052-19.638-37.152c-13.639-14.099-22.765,4.837-22.765,4.837s11.045-4.29,18.292,5.763
		c7.246,10.052-13.205,24.952,7.797,36.191C1219.343,795.133,1214.654,774.253,1214.654,774.253z" fill="#F69CB3" id="path4254-5"></path>
        <path d="M1287.19,1063.424
		l-82.646-94.327l2.362-30.264c-32.393,19.743-38.567,53.78-34.913,72.352l48.388,119.714L1287.19,1063.424z" fill="#FFFFFF" id="path4256-48"></path>
        <path d="M1336.256,1023.349
		l-11.488-57.797c31.81,9.84,58.533,57.078,49.128,86.486c-2.973,8.685-29.58,84.181-29.58,84.181l-57.126-72.795L1336.256,1023.349
		z" fill="#FFFFFF" id="path4258-6"></path>
        <path d="M1445.264,628.732
		c-13.571,73.403-129.218,178.68-201.547,153.445l-10.368-30.585c0,0-23.828-43.312-49.252-47.519
		c-25.423-4.208-117.135-58.048-117.135-58.048s21.072-122.908,93.81-182.037c72.737-59.128,197.018-13.526,270.327,23.486
		c42.158,21.284,36.113,72.912,36.113,72.912c21.206,38.203,53.514,68.49,32.726,117.055
		c-20.789,48.566-44.998,58.485-44.998,58.485S1454.452,676.038,1445.264,628.732L1445.264,628.732z" fill="#3D3D3D" id="path4260-9-3"></path>
        <path d="M1369.063,1498.195
		c-34.846-2.299-80.729-13.189-119.002-87.377c-27.187,33.842-60.645,70.819-146.449,48.182l181.76,195.33L1369.063,1498.195z" fill="#E0523C" id="path14884-1"></path>
        <path d="M1231.38,1753.508
		l-0.031,27.463l-378.685,26.521l6.403-53.984H1231.38z" fill="#FFFFFF" id="path7284-3"></path>
        <path d="M1155.796,3016.23
		l-8.185-66.632h79.835h19.018l1.653,93.888L1155.796,3016.23z" fill="#F6C6C0" id="path48776-0"></path>
        <g transform="translate(-979.68547)" id="g18677">
		<path d="M1928.837,2856.256
			c-47.854,53.576-108.257,82.045-134.914,63.587c-26.655-18.46-9.469-76.856,38.385-130.434
			c47.855-53.577,108.258-82.046,134.914-63.587C1993.879,2744.281,1976.693,2802.678,1928.837,2856.256z" fill="#CECFFF" id="path18651"></path>
            <path d="M1914.368,2753.158
			c-47.855,53.578-108.257,82.047-134.915,63.587c-26.655-18.46-9.47-76.856,38.386-130.433
			c47.854-53.578,108.258-82.047,134.914-63.588C1979.409,2641.184,1962.223,2699.581,1914.368,2753.158z" fill="#CECFFF" id="path18653"></path>
            <path d="M1584.514,2856.256
			c47.855,53.576,108.258,82.045,134.914,63.587c26.656-18.46,9.47-76.856-38.385-130.434
			c-47.855-53.577-108.258-82.046-134.914-63.587S1536.659,2802.678,1584.514,2856.256z" fill="#B7BBFF" id="path18655"></path>
            <path d="M1598.984,2753.158
			c47.855,53.578,108.258,82.047,134.915,63.587c26.655-18.46,9.469-76.856-38.386-130.433
			c-47.855-53.578-108.258-82.047-134.914-63.588C1533.943,2641.184,1551.129,2699.581,1598.984,2753.158z" fill="#B7BBFF" id="path18657"></path>
            <path d="M1724.388,2365.561
			c-14.637-0.799-26.339,12.007-24.228,26.514c0,0,38.21,293.281,29.662,501.795c-0.788,12.971,9.228,24.061,22.211,24.594
			c12.984,0.531,23.874-9.701,24.151-22.692c8.849-215.868-30.012-509.736-30.012-509.736
			C1744.859,2374.818,1735.664,2366.176,1724.388,2365.561L1724.388,2365.561z" fill="#A5A3FF" id="path18659"></path>
            <path d="M1765.214,2283.465
			c5.895,58.479-15.718,104.592-48.274,102.996c-32.556-1.596-63.728-50.298-69.623-108.776
			c-5.895-58.479,15.718-104.593,48.274-102.996C1728.148,2176.283,1759.318,2224.984,1765.214,2283.465z" fill="#A5A3FF" id="path18661"></path>
            <path d="M1815.832,2342.13
			c-36.004,54.377-86.557,87.834-112.912,74.728c-26.356-13.105-18.536-67.813,17.468-122.19
			c36.004-54.378,86.557-87.835,112.913-74.729C1859.657,2233.045,1851.836,2287.752,1815.832,2342.13z" fill="#A5A3FF" id="path18663"></path>
            <path d="M1613.095,2359.805
			c43.145,46.035,97.821,70.679,122.123,55.045c24.301-15.635,9.025-65.627-34.119-111.661
			c-43.146-46.035-97.821-70.68-122.123-55.046S1569.95,2313.77,1613.095,2359.805L1613.095,2359.805z" fill="#A5A3FF" id="path18665"></path>
            <path d="M1597.549,2563.979
			c58.449,41.766,123.626,56.281,145.582,32.423c21.954-23.86-7.631-77.061-66.079-118.827
			c-58.449-41.768-123.627-56.283-145.582-32.424S1539.101,2522.212,1597.549,2563.979L1597.549,2563.979z" fill="#A5A3FF" id="path18667"></path>
            <path d="M1870.304,2674.178
			c-36.262,62.012-89.809,101.909-119.6,89.111c-29.791-12.797-24.544-73.445,11.719-135.458
			c36.262-62.014,89.809-101.91,119.599-89.112C1911.813,2551.516,1906.566,2612.164,1870.304,2674.178z" fill="#A5A3FF" id="path18669"></path>
            <path d="M1534.577,2872.632
			l28.995,176.116c4.025,29.472,23.945,53.689,53.689,53.689h238.546c29.744,0,49.127-24.297,53.689-53.689l27.333-176.116H1534.577
			z" fill="#CECFFF" id="path18671"></path>
            <path d="M1534.577,2872.632
			l6.623,40.231h389.385l6.244-40.231H1534.577z" fill="#B7BBFF" id="path18673"></path>
            <path d="M1521.46,2771.131h429.879
			c29.745,0,53.69,23.945,53.69,53.689s-23.945,53.69-53.69,53.69H1521.46c-29.744,0-53.69-23.946-53.69-53.69
			S1491.715,2771.131,1521.46,2771.131z" fill="#CECFFF" id="path18675"></path>
	</g>
        <path d="M1231.349,1780.971
		l19.468,934.762l-4.353,233.866h-98.853l-24.553-233.866l-57.208-544.91l-134.609,544.91l-44.205,233.866H802.7l5.837-233.866
		l-2.148-581.723c-36.884-93.434-67.185-232.998,46.275-326.518L1231.349,1780.971z" fill="#6584F7" id="path48782-5"></path>
        <path d="M1123.059,2715.732h127.758l-4.353,233.866h-98.853
		L1123.059,2715.732z" fill="#3362C4" id="path48784-7"></path>
        <path d="M808.537,2715.732h122.705
		l-44.205,233.866H796.37L808.537,2715.732z" fill="#3362C4" id="path48786-2"></path>
        <path d="M1065.851,2170.822
		l23.274-88.481h37.282l-35.81,326.308L1065.851,2170.822z" fill="#3362C4" id="path48788-2"></path>
        <path d="M1246.464,2979.158
		l-95.671,1.111l5.004,35.961c0,0,91.867-5.988,92.074-7.021C1248.077,3008.175,1246.464,2979.158,1246.464,2979.158z" fill="#FFFFFF" id="path48796-1"></path>
        <path d="M1406.729,3101.612
		h-260.454l9.521-85.381l31.021-8.485c21.118-20.388,59.773-25.387,86.154,4.658c0,0,48.282,34.74,71.835,35.328
		C1392.522,3047.732,1410.36,3056.865,1406.729,3101.612z" fill="#3D3D3D" id="path48798-2"></path>
        <path d="M876.514,3016.23
		l10.523-66.632h-71.65H796.37l-12.178,93.888L876.514,3016.23z" fill="#F6C6C0" id="path48800-5"></path>
        <path d="M792.254,2979.158
		l89.959,1.111l-5.7,35.961c0,0-91.868-5.988-92.074-7.021C784.231,3008.175,792.254,2979.158,792.254,2979.158L792.254,2979.158z" fill="#FFFFFF" id="path48802-0"></path>
        <path d="M723.895,3101.612h156.351
		l-3.732-85.381l-31.021-8.485c-21.118-20.388-53.238-28.588-70.952,1.442C751.57,3068.673,720.179,3044.008,723.895,3101.612z" fill="#3D3D3D" id="path48804-6"></path>
        <path d="M1147.611,2949.599l3.181,30.671l95.671-1.111v-29.56
		H1147.611z" fill="#F6CDC1" id="path48806-4"></path>
        <path d="M1161.651,2810.01h24.414c24.503,0,44.228,19.725,44.228,44.227v203.148
		c0,24.502-19.725,44.228-44.228,44.228h-24.414c-24.501,0-44.227-19.726-44.227-44.228v-203.148
		C1117.424,2829.734,1137.149,2810.01,1161.651,2810.01L1161.651,2810.01z" fill="#A5A3FF" id="rect9008"></path>
        <path d="M2319.232,2810.01h24.414c24.502,0,44.228,19.725,44.228,44.227v203.148
		c0,24.502-19.726,44.228-44.228,44.228h-24.414c-24.502,0-44.227-19.726-44.227-44.228v-203.148
		C2275.006,2829.734,2294.73,2810.01,2319.232,2810.01L2319.232,2810.01z" fill="#A5A3FF" id="rect9010"></path>
        <path d="M2084.099,2810.01h24.415c24.502,0,44.227,19.725,44.227,44.227v203.148
		c0,24.502-19.725,44.228-44.227,44.228h-24.415c-24.501,0-44.227-19.726-44.227-44.228v-203.148
		C2039.872,2829.734,2059.597,2810.01,2084.099,2810.01L2084.099,2810.01z" fill="#A5A3FF" id="rect9012"></path>
        <path d="M1407.637,2810.01h24.414c24.503,0,44.228,19.725,44.228,44.227v203.148
		c0,24.502-19.725,44.228-44.228,44.228h-24.414c-24.501,0-44.227-19.726-44.227-44.228v-203.148
		C1363.41,2829.734,1383.136,2810.01,1407.637,2810.01L1407.637,2810.01z" fill="#A5A3FF" id="rect9014"></path>
        <path d="M1111.625,1699.873
		h1300.138c52.589,0,94.925,42.336,94.925,94.925V2942.74c0,52.588-42.336,94.924-94.925,94.924H1111.625
		c-52.588,0-94.925-42.336-94.925-94.924V1794.798C1016.699,1742.209,1059.036,1699.873,1111.625,1699.873z" fill="#CECFFF" id="rect9003"></path>
        <path d="M930.075,1341.438
		c-42.772,22.267-66.872,93.967-40.65,122.946c78.16,84.435,232.111,85.301,334.731,142.016l4.878,14.212h175.684
		c2.78-1.135,5.327-2.431,7.004-4.67c7.615-10.727-3.548-20.965-27.958-31.729c-62.805-36.11-81.647-46.481-128.792-34.482
		c-85.668-42.097-159.767-92.608-243.417-142.375C976.705,1386.623,954.205,1360.57,930.075,1341.438L930.075,1341.438z" fill="#F6C6C0" id="path4286-8"></path>
        <path d="M1011.555,1407.356
		l22.894-32.6l-176.038-61.144l6.419,78.86L1011.555,1407.356z" fill="#FFFFFF" id="path4288-0"></path>
        <path d="M1718.312,1944.154
		h625.205c41.507,0,74.922,33.415,74.922,74.922v231.285c0,41.508-33.415,74.923-74.922,74.923h-625.205
		c-41.507,0-74.922-33.415-74.922-74.923v-231.285C1643.39,1977.569,1676.805,1944.154,1718.312,1944.154z" fill="#F2F4FF" id="rect9577"></path>
        <path d="M1111.625,1699.873
		h348.592c52.588,0,94.924,42.336,94.924,94.925V2942.74c0,52.588-42.336,94.924-94.924,94.924h-348.592
		c-52.588,0-94.925-42.336-94.925-94.924V1794.798C1016.699,1742.209,1059.036,1699.873,1111.625,1699.873z" fill="#B7BBFF" id="path9580"></path>
        <path d="M1744.427,2015.137c0,15.893-12.883,28.776-28.777,28.776l0,0
		c-15.893,0-28.776-12.884-28.776-28.776l0,0c0-15.893,12.884-28.776,28.776-28.776l0,0
		C1731.544,1986.36,1744.427,1999.244,1744.427,2015.137L1744.427,2015.137z" fill="#B7BBFF" id="path9582"></path>
        <path d="M1744.427,2254.302c0,15.893-12.883,28.776-28.777,28.776l0,0
		c-15.893,0-28.776-12.884-28.776-28.776l0,0c0-15.893,12.884-28.776,28.776-28.776l0,0
		C1731.544,2225.525,1744.427,2238.409,1744.427,2254.302L1744.427,2254.302z" fill="#B7BBFF" id="circle9584"></path>
        <path d="M2376.232,2015.137c0,15.893-12.883,28.776-28.775,28.776l0,0
		c-15.893,0-28.777-12.884-28.777-28.776l0,0c0-15.893,12.885-28.776,28.777-28.776l0,0
		C2363.35,1986.36,2376.232,1999.244,2376.232,2015.137L2376.232,2015.137z" fill="#B7BBFF" id="circle9586"></path>
        <path d="M2376.232,2254.302c0,15.893-12.883,28.776-28.775,28.776l0,0
		c-15.893,0-28.777-12.884-28.777-28.776l0,0c0-15.893,12.885-28.776,28.777-28.776l0,0
		C2363.35,2225.525,2376.232,2238.409,2376.232,2254.302L2376.232,2254.302z" fill="#B7BBFF" id="circle9588"></path>
        <path d="M2307.116,1204.724h61.497v126.61h-61.497V1204.724z" fill="#A5A3FF" id="rect9605"></path>
        <path d="M2183.853,965.697h308.023c33.004,0,59.575,26.57,59.575,59.575v144.316
		c0,33.004-26.571,59.575-59.575,59.575h-308.023c-33.004,0-59.574-26.57-59.574-59.575v-144.316
		C2124.278,992.267,2150.849,965.697,2183.853,965.697z" fill="#A5A3FF" id="rect9590"></path>
        <path d="M2066.188,1295.722h451.267
		c33.005,0,59.575,26.571,59.575,59.575v144.316c0,33.004-26.57,59.575-59.575,59.575h-451.267
		c-33.004,0-59.575-26.57-59.575-59.575v-144.316C2006.614,1322.292,2033.184,1295.722,2066.188,1295.722z" fill="#CECFFF" id="rect9594"></path>
        <path d="M1938.292,1426.176h604.742
		c33.005,0,59.575,26.57,59.575,59.575v172.454c0,33.004-26.57,59.574-59.575,59.574h-604.742c-33.004,0-59.575-26.57-59.575-59.574
		V1485.75C1878.718,1452.746,1905.288,1426.176,1938.292,1426.176z" fill="#B7BBFF" id="rect9592"></path>
        <path d="M873.87,1620.683h1777.868c24.501,0,44.227,19.726,44.227,44.227v98.355
		c0,24.502-19.726,44.227-44.227,44.227H873.87c-24.502,0-44.228-19.725-44.228-44.227v-98.355
		C829.643,1640.409,849.368,1620.683,873.87,1620.683z" fill="#A5A3FF" id="rect9005"></path>
        <path d="M2206.303,998.355h263.123
		c24.822,0,44.805,19.983,44.805,44.805v108.539c0,24.822-19.982,44.806-44.805,44.806h-263.123
		c-24.823,0-44.806-19.983-44.806-44.806V1043.16C2161.498,1018.338,2181.48,998.355,2206.303,998.355L2206.303,998.355z" fill="#F2F4FF" id="rect9598"></path>
        <path d="M2351.672,1109.856l-0.121,47.536H2195.23l0.121-47.536
		H2351.672z" fill="#CECFFF" id="path9601"></path>
        <path d="M2484.684,1030.329
		l-0.146,47.536h-288.611l0.146-47.536H2484.684z" fill="#CECFFF" id="path9603"></path>
        <path d="M2515.379,1469.244l-0.453,47.535h-586.998l0.451-47.535
		H2515.379z" fill="#F2F4FF" id="path9607"></path>
        <path d="M2145.759,1542.145l-0.17,47.535h-221.498l0.171-47.535
		H2145.759z" fill="#F2F4FF" id="path9609"></path>
        <g transform="translate(-22.21678)" id="g18649">
		<path d="M3933.463,2856.256
			c-47.855,53.576-108.259,82.045-134.914,63.587c-26.656-18.46-9.471-76.856,38.385-130.434s108.258-82.046,134.914-63.587
			C3998.503,2744.281,3981.318,2802.678,3933.463,2856.256z" fill="#CECFFF" id="path13256"></path>
            <path d="M3918.992,2753.158
			c-47.855,53.578-108.258,82.047-134.914,63.587c-26.654-18.46-9.47-76.856,38.386-130.433
			c47.854-53.578,108.258-82.047,134.913-63.588C3984.033,2641.184,3966.848,2699.581,3918.992,2753.158z" fill="#CECFFF" id="path13258"></path>
            <path d="M3589.139,2856.256
			c47.855,53.576,108.258,82.045,134.914,63.587c26.655-18.46,9.471-76.856-38.385-130.434s-108.258-82.046-134.914-63.587
			S3541.284,2802.678,3589.139,2856.256z" fill="#B7BBFF" id="path13254"></path>
            <path d="M3603.608,2753.158
			c47.855,53.578,108.259,82.047,134.914,63.587s9.47-76.856-38.386-130.433c-47.854-53.578-108.258-82.047-134.913-63.588
			S3555.754,2699.581,3603.608,2753.158z" fill="#B7BBFF" id="path13252"></path>
            <path d="M3729.013,2365.561
			c-14.637-0.799-26.34,12.007-24.228,26.514c0,0,38.21,293.281,29.662,501.795c-0.789,12.971,9.227,24.061,22.211,24.594
			c12.984,0.531,23.874-9.701,24.15-22.692c8.849-215.868-30.012-509.736-30.012-509.736
			C3749.484,2374.818,3740.289,2366.176,3729.013,2365.561L3729.013,2365.561z" fill="#A5A3FF" id="path13199"></path>
            <path d="M3769.839,2283.465
			c5.896,58.479-15.718,104.592-48.274,102.996s-63.728-50.298-69.623-108.776c-5.895-58.479,15.719-104.593,48.275-102.996
			C3732.773,2176.283,3763.943,2224.984,3769.839,2283.465z" fill="#A5A3FF" id="path13203"></path>
            <path d="M3820.457,2342.13
			c-36.004,54.377-86.557,87.834-112.913,74.728c-26.356-13.105-18.534-67.813,17.469-122.19
			c36.005-54.378,86.558-87.835,112.913-74.729C3864.281,2233.045,3856.461,2287.752,3820.457,2342.13z" fill="#A5A3FF" id="path13211"></path>
            <path d="M3617.721,2359.805
			c43.145,46.035,97.82,70.679,122.123,55.045c24.301-15.635,9.023-65.627-34.119-111.661
			c-43.146-46.035-97.821-70.68-122.123-55.046S3574.575,2313.77,3617.721,2359.805L3617.721,2359.805z" fill="#A5A3FF" id="path13213"></path>
            <path d="M3602.174,2563.979
			c58.449,41.766,123.627,56.281,145.582,32.423c21.953-23.86-7.631-77.061-66.08-118.827
			c-58.448-41.768-123.627-56.283-145.58-32.424C3514.141,2469.01,3543.727,2522.212,3602.174,2563.979L3602.174,2563.979z" fill="#A5A3FF" id="path13197"></path>
            <path d="M3874.93,2674.178
			c-36.263,62.012-89.81,101.909-119.6,89.111c-29.791-12.797-24.545-73.445,11.719-135.458
			c36.262-62.014,89.809-101.91,119.6-89.112C3916.438,2551.516,3911.191,2612.164,3874.93,2674.178z" fill="#A5A3FF" id="path13238"></path>
            <path d="M3539.201,2872.632
			l28.994,176.116c4.025,29.472,23.945,53.689,53.69,53.689h238.546c29.744,0,49.128-24.297,53.689-53.689l27.332-176.116H3539.201z" fill="#CECFFF" id="path13205"></path>
            <path d="M3539.201,2872.632
			l6.623,40.231h389.385l6.245-40.231H3539.201z" fill="#B7BBFF" id="path13207"></path>
            <path d="M3526.084,2771.131h429.88
			c29.745,0,53.69,23.945,53.69,53.689s-23.945,53.69-53.69,53.69h-429.88c-29.744,0-53.689-23.946-53.689-53.69
			S3496.34,2771.131,3526.084,2771.131z" fill="#CECFFF" id="path13209"></path>
	</g>
        <path d="M3106.627,1748.373
		l-312.175,630.125l2.881,337.234h127.759l65.934-297.832l272.1-301.918l181.079,599.75l124.21,14.893l-83.584-955.764
		L3106.627,1748.373z" fill="#FF6853" id="path7437-0-13"></path>
        <path d="M3263.126,2115.982
		l-31.453-121.882h-37.282l-13.461,213.211L3263.126,2115.982z" fill="#E0523C" id="path7439-5-5"></path>
        <path d="M3113.35,1720.876
		l-7.203,27.462l378.684,26.523l-6.402-53.985H3113.35z" fill="#FFFFFF" id="path7441-3-1"></path>
        <path d="M3512.5,3016.23
		l-10.524-66.632h71.65h19.017l12.178,93.888L3512.5,3016.23z" fill="#F6C6C0" id="path7447-5-6"></path>
        <path d="M3596.76,2979.158
		l-89.961,1.111l5.701,35.961c0,0,91.867-5.988,92.074-7.021C3604.781,3008.175,3596.76,2979.158,3596.76,2979.158z" fill="#FFFFFF" id="path7449-4-0"></path>
        <path d="M3665.117,3101.612
		h-156.351l3.733-85.382l31.02-8.484c21.119-20.388,53.238-28.588,70.952,1.442
		C3637.441,3068.673,3668.832,3044.008,3665.117,3101.612z" fill="#3D3D3D" id="path7451-3-8"></path>
        <path d="M3450.591,943.484c0,0-54.252,3.792-117.481,14.126l-110.167,52.125l-59.669,195.804l-43.016,515.584l358.169-0.248l70.036-173.708
		l141.078-0.651c58.957,0.445,107.479-65.475,110.795-128.201c3.816-93.73,10.602-150.31,9.133-212.336
		c-1.975-83.536-35.059-118.733-106.4-167.046s-104.342-78.014-104.342-78.014L3450.591,943.484z M3643.809,1279.84l2.115,108.053
		l-49.415,3.837L3643.809,1279.84z" fill="#6584F7" id="path9087-7"></path>
        <path d="M3053.282,845.528h155.312c27.479,0,49.602,22.122,49.602,49.601v320.298
		c0,27.478-22.123,49.6-49.602,49.6h-155.312c-27.479,0-49.601-22.122-49.601-49.6V895.129
		C3003.682,867.65,3025.803,845.528,3053.282,845.528z" fill="#B7BBFF" id="rect18816"></path>
        <path d="M3439.559,714.25
		l-29.984,58.602C3325.713,755.463,3383.281,566.983,3439.559,714.25L3439.559,714.25z" fill="#F69CB3" id="path7401-5-9"></path>
        <path d="M3415.785,574.303
		c0,0-28.445,3.331-46.056,28.231c-17.61,24.901,23.864,114.804,23.864,114.804L3415.785,574.303z" fill="#3D3D3D" id="path7403-6-3"></path>
        <path d="M3651.665,579.627
		c0,0,39.378,1.527,45.188,51.496c5.811,49.969-46.145,139.199-46.145,139.199c1,67.326-26.406,118.424-78.654,50.923
		c-23.445-32.671-23.167-200.629-23.167-200.629s-107.076,6.354-147.528-30.994s-77.556-141.009-15.479-154.141
		c62.079-13.131,71.738,31.093,202.074,37.873C3656.023,476.896,3678.772,535.121,3651.665,579.627L3651.665,579.627z" fill="#3D3D3D" id="path7405-8-3"></path>
        <path d="M3627.9,793.96
		c0,0-27.319,78.845-35.227,114.322c-7.908,35.478-13.714,54.287-13.714,54.287l-106.538,55.046l-33.602-53.706l48.31-83.839
		L3627.9,793.96z" fill="#F6C6C0" id="path7407-4-7"></path>
        <path d="M3627.9,793.961
		l-140.771,86.11l-36.539,63.413c16.82,8.484,36.504,12.993,54.297,3.221c42.213-23.184,74.309-102.32,74.309-102.32L3627.9,793.961
		z" fill="#F69CB3" id="path7409-7-0"></path>
        <path d="M3438.82,963.91
		l29.438-51.049c-33.285-0.894-84.033,12.55-84.57,43.42c0.031,9.18,11.26,111.935,11.26,111.935l77.475-50.601L3438.82,963.91z" fill="#FFFFFF" id="path7417-1-4"></path>
        <path d="M3627.9,793.96
		c85.641-0.999,65.246-197.018-18.203-63.261c-15.739-33.196-50.581-82.968-23.408-141.47
		c-65.104,14.457-118.998,25.314-184.93,0.394C3345.88,881.909,3476.529,1075.501,3627.9,793.96L3627.9,793.96z" fill="#F6C6C0" id="path7411-6-6"></path>
        <path d="M3627.994,753.684
		c-0.225-1.543,6.4-22.944,20.281-36.805c13.882-13.859,22.678,5.233,22.678,5.233s-10.969-4.48-18.389,5.444
		c-7.421,9.924,12.768,25.178-8.428,36.05C3622.943,774.479,3627.994,753.684,3627.994,753.684L3627.994,753.684z" fill="#F69CB3" id="path7413-3-57"></path>
        <path d="M3472.422,1017.615
		l108.556-62.797l7.48-29.421c24.338,29.098,28.829,50.138,19.404,66.553l-93.833,111.018L3472.422,1017.615z" fill="#FFFFFF" id="path7415-0-9"></path>
        <path d="M2925.092,2715.732
		h-127.759l4.353,233.866h90.668L2925.092,2715.732z" fill="#E0523C" id="path7433-5-9"></path>
        <path d="M3566.91,2715.732h-122.705l57.771,233.866h90.667
		L3566.91,2715.732z" fill="#E0523C" id="path7435-2-6"></path>
        <path d="M2939.97,1197.126
		c-14.47,10.852-249.112,197.514-256.347,244.541c-7.234,47.027,78.023,34.339,78.023,34.339s106.467,7.262,115.51-56.043
		S2939.97,1197.126,2939.97,1197.126L2939.97,1197.126z" fill="#6584F7" id="path16877"></path>
        <path d="M2794.488,1476.006
		l22.539-96.559l-148.357,6.395l19.184,73.575L2794.488,1476.006z" fill="#FFFFFF" id="path16879"></path>
        <path d="M2892.528,3016.23
		l-0.174-66.632h-71.65h-19.017l-1.48,93.888L2892.528,3016.23z" fill="#F6C6C0" id="path15613"></path>
        <path d="M2800.568,2974.629
		l-0.361,68.857l92.322-27.256l-0.668-40.322L2800.568,2974.629z" fill="#FFFFFF" id="path15615"></path>
        <path d="M2641.596,3101.612h262.975
		l-12.042-85.382l-31.021-8.484c-21.118-20.388-59.771-25.388-86.153,4.657c0,0-48.281,34.741-71.835,35.329
		C2655.802,3047.732,2637.965,3056.865,2641.596,3101.612L2641.596,3101.612z" fill="#3D3D3D" id="path15617"></path>
        <path d="M2914.682,1039.745c52.039,136.778,58.652,261.193,14.771,277.889
		c-43.88,16.695-121.639-80.652-173.679-217.43c-52.039-136.778-58.651-261.193-14.771-277.888S2862.643,902.967,2914.682,1039.745
		L2914.682,1039.745z" fill="#CECFFF" id="path17645"></path>
        <path d="M3076.848,1162.431c0,73.92-59.924,133.846-133.845,133.846l0,0
		c-73.921,0-133.847-59.925-133.847-133.846l0,0c0-73.92,59.926-133.845,133.847-133.845l0,0
		C3016.924,1028.586,3076.848,1088.511,3076.848,1162.431L3076.848,1162.431z" fill="#A5A3FF" id="path17639"></path>
        <path d="M3269.32,1106.025
		c0,0-35.908,33.438-49.613,50.29l-68.928-49.879l-62.805,49.879l-66.299-49.879l-67.353,49.879l-67.271-49.879l-65.101,49.879
		l-62.689-49.879v619.2c0,55.111,44.368,99.481,99.479,99.481h311.101c55.111,0,99.479-44.37,99.479-99.481V1106.025z" fill="#E3E1FF" id="rect17629"></path>
        <path d="M3117.705,1400.12
		c-13.314,14.021,0.795,31.243,34.066,51.993c34.346,21.42,113.326,84.132,131.965,84.648
		c18.638,0.517,114.299-18.514,114.299-18.514l2.964-0.232l3.547-91.941c-9.586-5.208-19.067-14.172-35.133-26.695
		c-1.845-1.437-53.98-47.548-79.817-52.335c-25.838-4.788-27.645,44.517-27.645,44.517s-127.291-7.046-142.871,7.213
		c-0.494,0.439-0.951,0.889-1.373,1.348L3117.705,1400.12z" fill="#F6CDC1" id="path9096-8"></path>
        <path d="M3404.546,1426.074c-0.99-0.538-1.982-1.126-2.979-1.745
		l-49.653,102.63c24.55-4.437,46.119-8.712,46.119-8.712l2.967-0.231L3404.546,1426.074z" fill="#F69CB3" id="path9106-9"></path>
        <path d="M3382.323,1544.038
		l24.251-141.459l44.003,3.22l-25.554,142.167L3382.323,1544.038z" fill="#FFFFFF" id="path9094-8"></path>
        <path d="M3483.191,1396.846
		l113.317-5.116l47.301-111.89L3483.191,1396.846z" fill="#3362C4" id="path15625"></path>
        <path d="M3548.463,1547.167h-87.994l17.959,173.708
		L3548.463,1547.167z" fill="#3362C4" id="path15627"></path>
        <path d="M2769.263,1437.265
		l-7.615,38.741c0,0,70.316,20.9,78.183,53.339c7.867,32.438-101.844,89.468-138.441,80.734
		c-36.598-8.734-70.178-89.837-47.804-144.297C2664.572,1434.435,2780.912,1378.004,2769.263,1437.265L2769.263,1437.265z" fill="#F6CDC1" id="path9100-1"></path>
        <path d="M2514.541,2596.607
		l141.08-618.582l54.312-202.693h160.927c49.021,0,68.531-98.732,2.641-102.004h-160.567c0,0-73.095-5.894-88.34,51.003
		c-15.246,56.896-219.893,897.02-219.893,897.02L2514.541,2596.607z" fill="#CCCCFF" id="path8966"></path>
        <path d="M2715.309,2596.607
		l141.081-618.582l54.312-202.693h160.926c49.021,0,68.531-98.732,2.641-102.004h-160.566c0,0-73.095-5.894-88.341,51.003
		c-15.245,56.896-219.892,897.02-219.892,897.02L2715.309,2596.607z" fill="#B7BBFF" id="path8964"></path>
        <path d="M2630.154,2181.871l-122.898,754.879c-3.531,21.68-23.824,36.291-45.504,32.762
		c-21.68-3.53-36.291-23.825-32.762-45.504l122.898-754.879c3.529-21.68,23.824-36.291,45.503-32.762
		C2619.071,2139.896,2633.683,2160.191,2630.154,2181.871L2630.154,2181.871z" fill="#A5A3FF" id="rect8980"></path>
        <path d="M2262.984,2010.582h412.678
		c21.965,0,39.648,17.684,39.648,39.647v506.729c0,21.966-17.684,39.648-39.648,39.648h-412.678
		c-21.964,0-39.647-17.683-39.647-39.648v-506.729C2223.337,2028.266,2241.02,2010.582,2262.984,2010.582z" fill="#E3E1FF" id="rect9109"></path>
        <path d="M1941.947,2122.723
		h758.893c64.13,0,109.488,52.727,97.67,115.759l-65.113,347.274c-11.818,63.031-51.628,115.758-115.758,115.758h-574.402
		c-64.13,0-102.678-52.976-115.758-115.758l-72.35-347.274C1842.049,2175.699,1877.818,2122.723,1941.947,2122.723
		L1941.947,2122.723z" fill="#B7BBFF" id="rect8961"></path>
        <path d="M2581.448,3005.75c0,52.943-42.919,95.862-95.862,95.862l0,0
		c-52.943,0-95.862-42.919-95.862-95.862l0,0c0-52.943,42.919-95.862,95.862-95.862l0,0
		C2538.529,2909.888,2581.448,2952.807,2581.448,3005.75L2581.448,3005.75z" fill="#CECFFF" id="circle8970"></path>
        <path d="M2704.441,3005.75c0,52.943-42.919,95.862-95.862,95.862l0,0
		c-52.943,0-95.862-42.919-95.862-95.862l0,0c0-52.943,42.919-95.862,95.862-95.862l0,0
		C2661.522,2909.888,2704.441,2952.807,2704.441,3005.75L2704.441,3005.75z" fill="#B7BBFF" id="path8968"></path>
        <path d="M2071.389,3005.75c0,52.943-42.919,95.862-95.863,95.862l0,0
		c-52.943,0-95.862-42.919-95.862-95.862l0,0c0-52.943,42.919-95.862,95.862-95.862l0,0
		C2028.47,2909.888,2071.389,2952.807,2071.389,3005.75L2071.389,3005.75z" fill="#A5A3FF" id="circle8972"></path>
        <path d="M2194.382,3005.75c0,52.943-42.919,95.862-95.863,95.862l0,0
		c-52.942,0-95.862-42.919-95.862-95.862l0,0c0-52.943,42.919-95.862,95.862-95.862l0,0
		C2151.463,2909.888,2194.382,2952.807,2194.382,3005.75L2194.382,3005.75z" fill="#B7BBFF" id="circle8974"></path>
        <path d="M1877.302,2881.631h764.818c21.966,0,39.647,17.684,39.647,39.648
		s-17.682,39.647-39.647,39.647h-764.818c-21.964,0-39.648-17.683-39.648-39.647S1855.338,2881.631,1877.302,2881.631
		L1877.302,2881.631z" fill="#B7BBFF" id="rect8976"></path>
        <path d="M2805.371,2181.871l-122.898,754.879c-3.529,21.68-23.824,36.291-45.504,32.76
		c-21.68-3.528-36.291-23.823-32.762-45.502l122.898-754.879c3.529-21.68,23.824-36.291,45.504-32.762
		S2808.9,2160.191,2805.371,2181.871z" fill="#B7BBFF" id="rect8978"></path>
        <path d="M2822.444,870.789c-1.69,8.734-3.986,16.806-7.112,22.834
		c-12.661,24.417-30.748,27.131-30.748,27.131s36.608,6.512,62.398-16.303C2838.82,892.043,2830.6,880.767,2822.444,870.789z
		 M2865.058,933.873c-1.72,13.098-4.507,26.09-9.029,34.813c-12.661,24.418-30.748,27.132-30.748,27.132s37.411,6.658,63.238-17.055
		C2881.005,963.056,2873.145,948.015,2865.058,933.873L2865.058,933.873z" fill="#A5A3FF" id="path17647"></path>
        <path d="M3097.493,1457.945c0,43.953-35.632,79.584-79.584,79.584
		c-43.953,0-79.584-35.631-79.584-79.584s35.631-79.583,79.584-79.583C3061.861,1378.362,3097.493,1413.992,3097.493,1457.945z" fill="#B7BBFF" id="path18131"></path>
        <path d="M3053.281,845.528c-27.479,0-49.6,22.121-49.6,49.6v79.575h254.514v-79.575
		c0-27.479-22.122-49.6-49.6-49.6H3053.281z" fill="#CECFFF" id="rect18820"></path>
        <path d="M3068.244,1017.103c-25.656,19.535-54.463,24.851-64.344,11.875l0,0
		c-9.879-12.976,2.91-39.332,28.566-58.865l0,0c25.655-19.535,54.463-24.851,64.342-11.875l0,0
		C3106.689,971.215,3093.899,997.569,3068.244,1017.103L3068.244,1017.103z" fill="#A5A3FF" id="circle18812"></path>
        <path d="M3039.594,973.302c0.527,32.242-12.265,58.596-28.572,58.862l0,0
		c-16.307,0.266-29.953-25.654-30.479-57.897l0,0c-0.527-32.242,12.265-58.595,28.572-58.861l0,0
		C3025.421,915.139,3039.067,941.06,3039.594,973.302L3039.594,973.302z" fill="#A5A3FF" id="ellipse18814"></path>
</g>
</svg>
